# xmcd
# 
# Track frame offsets:
#     150
#     11215
#     32652
#     52022
#     72785
#     88905
#     105455
#     121637
#     144862
#     176730
# 
# Disc length: 2730
# 
# Revision: 1
# Processed by: cddbd v1.5.2PL0 Copyright (c) Steve Scherf et al.
# Submitted via: BonkEnc v1.0
# 
DISCID=800aa80a
DTITLE=斉藤和義 - 素敵な匂いの世界
DYEAR=0
DGENRE=Rock
TTITLE0=一人よがり
TTITLE1=彼女
TTITLE2=幻の夢
TTITLE3=何もないテーブルに
TTITLE4=君の顔が好きだ
TTITLE5=エステに行こう
TTITLE6=神様　お願い！
TTITLE7=僕は他人
TTITLE8=素敵な匂いの世界
TTITLE9=ある日の出来事
EXTD=
EXTT0=
EXTT1=
EXTT2=
EXTT3=
EXTT4=
EXTT5=
EXTT6=
EXTT7=
EXTT8=
EXTT9=
PLAYORDER=
